<?xml version='1.0' encoding='utf-8'?>
<svg xmlns="http://www.w3.org/2000/svg" width="1000" height="1000" viewBox="0 0 264.58332 264.58334" version="1.1" id="svg5"> <defs id="defs2"/> <metadata id="metadata856"> </metadata> <rect style="fill:#f7f7f7;fill-opacity:1;stroke:none;stroke-width:10.5833;stroke-linecap:square;stroke-miterlimit:4;stroke-dasharray:none;stroke-opacity:1;paint-order:stroke markers fill" id="rect13690" width="264.58334" height="264.58334" x="0" y="0"/> <path id="path13776" style="fill:#86a3bf;fill-opacity:1;stroke:none;stroke-width:3.96875;stroke-linecap:square;paint-order:fill markers stroke" d="m 133.27351,97.944598 a 25.311391,25.311391 0 0 0 -25.31101,25.311032 25.311391,25.311391 0 0 0 0.17254,2.80172 c -9.546047,1.71411 -16.707844,9.42416 -16.707844,18.73295 0,10.57575 9.243824,19.08982 20.726094,19.08982 h 29.37933 1.60753 42.96806 c 10.57576,0 19.08983,-7.91415 19.08983,-17.74436 0,-9.76876 -8.40908,-17.64091 -18.89277,-17.73908 a 21.919142,21.919142 0 0 0 -21.74449,-19.16329 21.919142,21.919142 0 0 0 -9.03462,1.96332 25.311391,25.311391 0 0 0 -22.25267,-13.252112 z"/> <path id="path13694" style="fill:#c6e0f7;fill-opacity:1;stroke:none;stroke-width:3.96875;stroke-linecap:square;paint-order:fill markers stroke" d="m 105.75682,107.4696 a 25.311391,25.311391 0 0 0 -25.310997,25.31103 25.311391,25.311391 0 0 0 0.17254,2.80172 c -9.54604,1.71411 -16.70784,9.42416 -16.70784,18.73295 0,10.57575 9.24383,19.08982 20.72609,19.08982 h 29.379317 1.60753 42.96806 c 10.57576,0 19.08983,-7.91415 19.08983,-17.74436 0,-9.76876 -8.40908,-17.64091 -18.89277,-17.73908 a 21.919142,21.919142 0 0 0 -21.74449,-19.16329 21.919142,21.919142 0 0 0 -9.03462,1.96332 25.311391,25.311391 0 0 0 -22.25267,-13.25211 z"/> </svg>